<?xml version="1.0" encoding="utf-8"?>
<!-- Generator: Adobe Illustrator 17.0.0, SVG Export Plug-In . SVG Version: 6.00 Build 0)  -->
<!DOCTYPE svg PUBLIC "-//W3C//DTD SVG 1.1//EN" "http://www.w3.org/Graphics/SVG/1.1/DTD/svg11.dtd">
<svg version="1.1" id="Camada_1" xmlns="http://www.w3.org/2000/svg" xmlns:xlink="http://www.w3.org/1999/xlink" x="0px" y="0px"
	 width="249px" height="282.579px" viewBox="0 0 249 282.579" enable-background="new 0 0 249 282.579" xml:space="preserve">
<path fill="#353030" d="M121.51,55.981c10.397-18.267,6.759-53.325-23.093-50.472c-6.752,0.647-29.441,8.528-18.873,36.32
	C88.82,66.213,112.693,71.484,121.51,55.981 M162.117,116.984c-12.263,12.765-24.612,6.921-30.334-4.051
	c-8.958-17.186-1.743-46.67,25.227-38.067C181.496,82.68,169.232,109.583,162.117,116.984 M128.341,48.238
	c-7.874,31.095-19.006,23.63-40.39,15.994c-7.849-2.803-15.139,1.963-19.624,9.813c-20.685,36.199-3.083,83.264,38.49,91.75
	c20.912,4.27,26.147-0.384,21.001-0.743c-4.121-0.289-3.421-0.189-6.693-0.644c-3.129-0.434-4.74-2.258,0.203-1.821
	c16.662,1.469,21.147,0.263,21.008-1.103c-0.146-1.419-2.991-2.016-6.11-2.23c-7.199-0.494-12.273-1.045-15.314-1.828
	c-3.144-0.804-3.887-2.393,0.416-1.814c19.273,2.583,23.356,0.498,22.562-1.245c-0.437-0.96-4.2-1.5-8.699-2.002
	c-2.856-0.316-8.955-1.081-12.924-2.244c-4.25-1.238-6.869-2.504,2.995-2.02c23.992,1.17,19.134-3.688,6.938-4.503
	c-2.65-0.178-7.468-1.056-10.824-1.451c-6.818-0.804-13.954-2.689-0.308-6.281c9.311-2.454,8.251-5.139-5.228-5.086
	c-13.819,0.053-32.175-6.676-30.053-30.356c0.802-8.937,3.88-12.637,7.753-12.569c3.875,0.064,8.547,3.898,12.539,10.019
	c10.814,16.581,42.215,53.499,81.395,9.532C212.704,79.092,133.836,26.535,128.341,48.238"/>
<path fill="#353030" d="M164.231,201.544c2.562-2.518,3.906-5.591,4.034-9.219v-6.754v-4.929c0,0-0.085-2.045,0-1.825h-67.917
	c-2.305,0-4.441,0.566-6.402,1.697c-1.963,1.131-3.521,2.688-4.674,4.673c-1.152,1.985-1.771,4.193-1.856,6.626v13.252h23.175
	v54.928c0,2.732,0.672,5.271,2.016,7.619c1.345,2.347,3.159,4.193,5.442,5.537c2.281,1.345,4.833,2.017,7.65,2.017
	c2.774,0,5.281-0.672,7.522-2.017c2.24-1.344,4.033-3.136,5.377-5.377c1.345-2.241,2.017-4.748,2.017-7.523v-54.928h14.653
	C158.683,205.321,161.67,204.062,164.231,201.544"/>
<path fill="#353030" d="M243.131,252.888l-22.535-58.194c-2.091-5.335-6.601-16.645-6.601-16.645h-16.254
	c-5.121,0-9.677,1.441-13.668,4.322c-3.99,2.881-7.031,6.988-9.122,12.323l-22.536,58.194c-1.152,3.201-1.729,5.911-1.729,8.13
	c0,2.988,0.801,5.623,2.401,7.907c1.6,2.283,3.873,4.065,6.818,5.345c2.049,0.897,4.14,1.345,6.275,1.345
	c3.115,0,5.964-0.984,8.546-2.945c2.583-1.963,4.45-4.61,5.602-7.938l1.828-4.354l15.585-51.791l15.749,51.791l1.729,4.354
	c1.237,3.414,3.147,6.081,5.729,8.002c2.582,1.92,5.389,2.881,8.419,2.881c2.134,0,4.225-0.448,6.274-1.345
	c2.945-1.28,5.217-3.062,6.818-5.345c1.6-2.284,2.401-4.919,2.401-7.907C244.86,258.97,244.283,256.26,243.131,252.888"/>
<path fill="#353030" d="M71.494,235.987l1.857-1.408l3.008-2.369l0.513-0.576c5.93-5.207,8.898-12.185,8.898-20.935
	c0-2.432-0.343-5.185-1.024-8.258c-1.152-4.993-3.201-9.251-6.146-12.772s-6.722-6.21-11.331-8.066
	c-4.61-1.857-9.923-2.785-15.941-2.785H7.251l-0.032,16.005v65.043c0,4.183,1.482,7.778,4.449,10.787
	c2.966,3.009,6.519,4.555,10.659,4.642c2.817,0,5.356-0.672,7.619-2.017c2.262-1.344,4.065-3.147,5.409-5.41
	c1.345-2.262,2.017-4.801,2.017-7.618v-11.441c-0.002,0.046-0.007,0.085-0.008,0.133v-43.62H37.5h12.987h0.137
	c1.237,0,2.345,0.491,3.329,1.472c0.981,0.982,1.494,2.198,1.536,3.649c0,1.836-0.523,3.34-1.568,4.514
	c-0.228,0.254-0.47,0.469-0.719,0.668c-1.165,1.348-2.401,2.821-3.917,3.77c-12.735,9.351-11.044,18.388-7.654,24.765l15.331,22.748
	c3.798,5.805,8.427,8.707,13.892,8.707c3.03,0,5.911-0.984,8.642-2.945c2.09-1.537,3.681-3.382,4.77-5.538
	c1.088-2.155,1.632-4.406,1.632-6.754c0-3.542-1.088-6.743-3.265-9.603L71.494,235.987z"/>
</svg>
